<?xml version="1.0" encoding="utf-8"?>
<svg xmlns="http://www.w3.org/2000/svg" viewBox="0 0 500 500">
  <path d="M 7.394 1.105 L 7.338 1.315 L 6.831 3.311 C 5.049 4.005 3.619 6.133 3.619 8.18 C 3.619 10.524 5.135 12.477 7.307 12.907 L 7.307 15.309 C 3.862 14.839 1.32 11.805 1.32 8.185 C 1.32 4.578 3.963 1.588 7.394 1.105 Z M 21.167 21.143 C 20.672 21.645 20.145 21.695 19.902 21.614 C 19.663 21.533 18.702 20.721 17.232 19.623 C 15.758 18.521 15.746 18.025 15.329 17.083 C 14.913 16.147 13.984 15.175 12.786 14.734 L 12.358 14.077 C 11.265 14.834 10.012 15.281 8.763 15.362 L 8.855 15.067 L 9.558 12.85 C 11.615 12.316 13.136 10.429 13.136 8.18 C 13.136 5.737 11.438 3.606 8.889 3.382 L 8.889 1.047 C 12.57 1.275 15.471 4.384 15.471 8.185 C 15.471 9.69 14.976 11.084 14.189 12.236 L 14.834 12.666 C 15.269 13.88 16.227 14.816 17.151 15.237 C 18.077 15.658 18.575 15.672 19.663 17.165 C 20.753 18.652 21.552 19.623 21.632 19.866 C 21.711 20.107 21.661 20.64 21.167 21.143 Z M 20.729 20.341 C 20.729 20.143 20.57 19.983 20.374 19.983 C 20.18 19.983 20.021 20.143 20.021 20.341 C 20.021 20.536 20.18 20.701 20.374 20.701 C 20.57 20.701 20.729 20.536 20.729 20.341 Z" style="stroke-width: 1; transform-box: fill-box; transform-origin: 50% 50%;"/>
</svg>